<?xml version="1.0" encoding="UTF-8"?>
<svg version="1.1" viewBox="0 0 2048 1312" width="1280" height="1280" xmlns="http://www.w3.org/2000/svg">
<path transform="translate(958,516)" d="m0 0h11l19 1 20 4 15 6 13 8 10 9 7 10 6 13 3 12v13h-49l-3-8-4-10-8-9-12-6-9-2h-23l-9 2-10 7-4 6-2 7v9l3 7 5 5 14 7 21 6 29 6 17 5 17 8 12 8 10 9 7 10 4 9 3 13v14l-4 18-5 12-8 11-8 8-11 7-14 6-15 5-26 4h-24l-25-4-15-6-18-11-10-9-7-10-8-16-2-6-2-21 1-2 15-1h32l3 3 4 16 5 9 8 7 12 6 17 4h12l18-3 14-7 7-8 1-4v-14l-4-8-11-8-14-6-24-7-26-6-24-9-12-7-10-9-7-8-6-11-3-13-1-10 4-20 8-16 7-9 9-9 12-7 14-5 19-4z" fill="#FEFEFE"/>
<path transform="translate(1555,583)" d="m0 0h21l13 4 11 6 10 8 5 6 2-17 7-3h29l9 2 1 28v117l-1 23-3 18-4 11-7 12-9 9-13 8-15 6-18 4-13 1h-14l-17-2-14-4-15-8-10-8-6-7-6-14-1-3v-8h46l7 13 5 4 9 3 5 1h16l12-3 9-6 6-9 3-9 1-11 1-24-16 14-12 6-9 2-10 1h-20l-12-2-12-5-14-11-9-12-6-13-5-17-2-26 2-23 4-12 8-16 6-9 8-9 10-7 10-5zm12 36-11 4-7 6-6 10-5 15-1 9v12l3 16 7 14 7 8 8 5 7 2h10l10-2 12-6 7-8 6-12 2-8 1-9v-11l-2-14-4-12-8-11-10-6-8-2z" fill="#FEFEFE"/>
<path transform="translate(1300,587)" d="m0 0h30l12 1 2 2 1 101 1 13 4 11 6 7 7 3 15 2 11-2 8-4 7-8 4-10 1-5 1-23 1-84 2-3 4-1h38l4 2v168l-4 4h-37l-4-3v-20l-14 14-11 7-11 4-9 1h-21l-16-2-12-6-10-9-6-9-4-10-3-14-1-18v-106l1-2z" fill="#FEFEFE"/>
<path transform="translate(1185,583)" d="m0 0h22l16 3 16 8 7 6 6 9 5 13 2 16v121l-4 2h-38l-4-2-1-13v-83l-1-14-4-15-6-8-7-4-7-1h-15l-9 2-8 7-6 12-3 11-1 103-3 3-7 2h-30l-7-3-2-4v-98l1-66 5-3h35l4 2 1 6v13l5-3 7-7 14-9 9-4z" fill="#FEFEFE"/>
<path transform="translate(590,547)" d="m0 0h9l9 4 5 4 10 14 12 20 7 11v2h3l2-4 8-4 10-1 6 1 6-8 8-4 10-1 11 4 2-4 5-4 8-2h9l6 3 8 9 12 19 10 17 8 16 7 19 5 21 2 16 1 31v20l-1 1-9-1-2-2-1-5-1-30-2-25-4-20-7-20-12-23-14-23-7-9-2-1h-6l-4 5v6l13 21v6l-5 4-5-2-5-6-13-21-4-5-2-1h-7l-5 5 1 7 7 12 10 15-1 4-4 4-6-1-7-10-13-21-4-3h-8l-4 5 1 8 15 24 4 6-1 5-7 4-6-5-30-48-14-22-10-16-6-7h-9l-6 5-1 7 5 10 32 50 14 22 11 17 12 19 3 5-1 4-6 5-7-6-14-22-4-6-6 2-7 5-2 4v8l5 10 10 15 8 11 9 9 14 9 14 6 18 6 13 4 9 6 9 14-1 6-3 3h-5l-6-7-5-7-13-5-21-7-19-9-13-9-12-12-11-15-10-16-4-7-1-4v-8l3-9 7-8 9-6h2l-5-10-24-38-14-22-6-12-1-3v-8l3-9 4-5z" fill="#FEFEFE"/>
<path transform="translate(473,583)" d="m0 0h22l3 9 2 7h73l2 1-5 25-4 17-1 1-52 1 1 6 52 1 5 6v6l-6 6-7-1-4-5-1-5h-26l-4 8-4 3-6-1-3-3-4-16-15-57v-2h-16l-2-1zm42 74v5h4l1-4zm45 0-1 3 1 3h4l1-4-2-2z" fill="#FEFEFE"/>
</svg>
